# xmcd
#
# Track frame offsets:
#	150
#	18749
#	35540
#	50475
#	65772
#	84344
#	100388
#	116267
#	133428
#	152941
#	168514
#
# Disc length: 2582 seconds
#
# Revision: 1
# Processed by: cddbd v1.5.2PL0 Copyright (c) Steve Scherf et al.
# Submitted via: audiograbber 1.83.01
#
DISCID=9a0a140b
DTITLE=The Farm Inc. - The Farm Inc.
DYEAR=2013
DGENRE=Country
TTITLE0=Be Grateful
TTITLE1=Every Time I Fall In Love
TTITLE2=Farm Party
TTITLE3=Fresh Off the Farm
TTITLE4=Home Sweet Home
TTITLE5=Little Boat
TTITLE6=Nowhere Road
TTITLE7=Sweet Sweet Sunshine
TTITLE8=That 100 Miles
TTITLE9=The Train I'm On
TTITLE10=Walkin'
EXTD=
EXTT0=
EXTT1=
EXTT2=
EXTT3=
EXTT4=
EXTT5=
EXTT6=
EXTT7=
EXTT8=
EXTT9=
EXTT10=
PLAYORDER=
